<?xml version="1.0" encoding="UTF-8" standalone="no"?><!DOCTYPE svg PUBLIC "-//W3C//DTD SVG 1.1//EN" "http://www.w3.org/Graphics/SVG/1.1/DTD/svg11.dtd"><svg width="100%" height="100%" viewBox="0 0 834 834" version="1.1" xmlns="http://www.w3.org/2000/svg" xmlns:xlink="http://www.w3.org/1999/xlink" xml:space="preserve" xmlns:serif="http://www.serif.com/" style="fill-rule:evenodd;clip-rule:evenodd;stroke-linejoin:round;stroke-miterlimit:2;"><circle cx="415.625" cy="415.625" r="398.958" style="fill:#f8f8f8;"/><g transform="matrix(1,0,0,0.652895,0,-1024.45)"><g transform="matrix(987.147,0,0,987.147,63.0311,2579.36)"><path d="M0.352,0.017c-0.062,-0 -0.113,-0.01 -0.155,-0.03c-0.041,-0.019 -0.072,-0.046 -0.093,-0.081c-0.02,-0.034 -0.031,-0.073 -0.031,-0.116l0.054,-0c0,0.033 0.008,0.063 0.024,0.09c0.015,0.027 0.04,0.048 0.073,0.063c0.033,0.016 0.076,0.024 0.128,0.024c0.049,-0 0.089,-0.007 0.122,-0.021c0.033,-0.014 0.057,-0.033 0.074,-0.057c0.016,-0.025 0.024,-0.053 0.024,-0.085c0,-0.039 -0.014,-0.073 -0.044,-0.101c-0.029,-0.027 -0.074,-0.044 -0.134,-0.05l-0.087,-0.007c-0.061,-0.006 -0.109,-0.025 -0.144,-0.058c-0.035,-0.033 -0.053,-0.077 -0.053,-0.131c0,-0.039 0.009,-0.073 0.027,-0.104c0.018,-0.031 0.045,-0.056 0.081,-0.074c0.036,-0.019 0.08,-0.028 0.133,-0.028c0.053,0 0.099,0.01 0.135,0.03c0.037,0.019 0.065,0.045 0.084,0.079c0.018,0.033 0.028,0.07 0.028,0.111l-0.054,0c-0,-0.03 -0.007,-0.058 -0.02,-0.084c-0.013,-0.025 -0.034,-0.046 -0.063,-0.062c-0.028,-0.016 -0.065,-0.024 -0.11,-0.024c-0.044,0 -0.079,0.007 -0.107,0.022c-0.027,0.014 -0.047,0.033 -0.06,0.056c-0.013,0.024 -0.02,0.05 -0.02,0.078c0,0.04 0.013,0.072 0.039,0.096c0.025,0.024 0.062,0.038 0.11,0.043l0.087,0.007c0.049,0.004 0.09,0.015 0.124,0.034c0.033,0.018 0.059,0.042 0.076,0.07c0.018,0.029 0.026,0.061 0.026,0.097c0,0.041 -0.01,0.077 -0.032,0.11c-0.022,0.032 -0.053,0.057 -0.093,0.075c-0.041,0.019 -0.09,0.028 -0.149,0.028Z" style="fill:#2f4f36;fill-rule:nonzero;"/></g><g transform="matrix(987.147,0,0,987.147,758.31,2579.36)"></g></g></svg>